<svg id="Layer_1" xmlns="http://www.w3.org/2000/svg" viewBox="-124.9 344.9 259.9 83.5"><style>.st0{fill:#AAAAAA;}</style><g id="XMLID_171_"><g id="XMLID_950_"><path class="st0" d="M-98.5 375.9l3.3.9c-2.5 2.6-3.6 6.2-3 9.8 2.6-2.4 5.9-4.3 9.6-5.3 2.8-2.8 6.1-4.7 9.6-5.8-2.9-2.4-6.8-3.2-10.5-2.2l.8-3.1c.1-.4-.1-.7-.5-.8-.4-.1-.7.1-.8.5l-1.1 4c-.4.2-.8.3-1.1.5-.1 0-.2.1-.2.1-.2.1-.5.3-.7.4-.3.2-.7.5-1 .7l-4.1-1.1c-.4-.1-.7.1-.8.5-.1.4.1.8.5.9z" id="XMLID_960_"/><path class="st0" d="M-49.7 389.8c1.6-8.6.3-17.7-4.4-25.9-5.1-8.8-13.3-15.1-23-17.7-9.8-2.6-20-1.3-28.8 3.8s-15.1 13.2-17.7 23c-2.6 9.8-1.3 20 3.8 28.8 4.5 7.8 11.4 13.6 19.8 16.6 5.4 7.8 15.3 11.7 24.9 9.1l-1.4-5.3-.7-2.8c3.2-.9 6.3-2.1 9.2-3.8 2.9-1.7 5.4-3.7 7.7-5.9l2.1 2.1 3.8 3.8c7-6.9 8.6-17.3 4.7-25.8zm-68.1 10.9c-4.8-8.2-6-17.8-3.6-27 2.5-9.2 8.4-16.9 16.6-21.6 5.5-3.2 11.6-4.8 17.8-4.8 3.1 0 6.2.4 9.3 1.2 9.2 2.5 16.9 8.4 21.6 16.6 3.9 6.7 5.3 14.2 4.6 21.4-.8-1.2-1.8-2.4-2.9-3.5-6.2-6.2-15.2-8.2-23.1-5.8-3.5 1.1-6.8 3-9.6 5.8-3.7 1-6.9 2.9-9.6 5.3-6.2 5.6-9 14.4-6.7 23.1.4 1.4.9 2.7 1.5 4-6.7-3.3-12.2-8.2-15.9-14.7zm48.7 13.1c-2.8 1.6-5.7 2.8-8.7 3.6l-8.1-30.4-1-3.9 2.8 2.8 22.3 22.3c-2.2 2.1-4.6 4-7.3 5.6z" id="XMLID_951_"/></g><g id="XMLID_112_"><path id="XMLID_947_" class="st0" d="M21.9 387.2H-1.2c.4 2.9 1.6 5.3 3.7 7.1s4.6 2.7 7.7 2.7c1.7 0 3.5-.3 5.3-.8s3.4-1.3 4.5-2.2c.3-.3.6-.4.9-.4.3 0 .5.1.8.3s.3.5.3.8c0 .3-.1.6-.4.9-.9.9-2.4 1.7-4.6 2.5s-4.5 1.2-6.8 1.2c-3.9 0-7.1-1.3-9.7-3.8s-3.9-5.6-3.9-9.2c0-3.3 1.2-6.1 3.7-8.5 2.4-2.4 5.5-3.5 9.1-3.5 3.7 0 6.8 1.2 9.1 3.6s3.4 5.5 3.4 9.3zm-2.3-2.2c-.4-2.5-1.6-4.5-3.5-6.1-1.9-1.6-4.2-2.3-6.8-2.3s-4.9.8-6.8 2.3-3.1 3.6-3.6 6.1h20.7z"/><path id="XMLID_19_" class="st0" d="M51.9 387.2H28.7c.4 2.9 1.6 5.3 3.7 7.1 2.1 1.8 4.6 2.7 7.7 2.7 1.7 0 3.5-.3 5.3-.8 1.9-.6 3.4-1.3 4.5-2.2.3-.3.6-.4.9-.4.3 0 .5.1.8.3s.3.5.3.8c0 .3-.1.6-.4.9-.9.9-2.4 1.7-4.6 2.5s-4.5 1.2-6.8 1.2c-3.9 0-7.1-1.3-9.7-3.8s-3.9-5.6-3.9-9.2c0-3.3 1.2-6.1 3.7-8.5 2.4-2.4 5.5-3.5 9.1-3.5 3.7 0 6.8 1.2 9.1 3.6 2.3 2.4 3.5 5.5 3.5 9.3zm-2.3-2.2c-.4-2.5-1.6-4.5-3.5-6.1-1.9-1.6-4.2-2.3-6.8-2.3s-4.9.8-6.8 2.3c-1.9 1.5-3.1 3.6-3.6 6.1h20.7z"/><path id="XMLID_940_" class="st0" d="M128.2 380.1V376h5.3c.5 0 .9.1 1.2.3.2.2.4.5.4.8 0 .3-.1.6-.4.8s-.6.3-1.2.3h-3v22.6c0 1.5-.3 2.9-1 4-.4.8-1.2 1.6-2.2 2.5-1 .8-1.9 1.4-2.8 1.8s-1.9.5-3.3.5h-10.1c-.5 0-.9-.1-1.2-.3-.2-.2-.4-.5-.4-.8 0-.3.1-.6.4-.8.2-.2.6-.3 1.2-.3h10.2c1.3 0 2.5-.3 3.6-1s2-1.7 2.7-3c.4-.8.6-1.7.6-2.9v-6.8c-2.4 3.3-5.6 5-9.4 5-3.1 0-5.8-1.2-8.1-3.5s-3.4-5.1-3.4-8.4c0-3.3 1.1-6 3.4-8.3 2.3-2.3 4.9-3.5 8.1-3.5 3.8.2 6.9 1.8 9.4 5.1zm0 6.9c0-2.7-.9-4.9-2.7-6.7-1.8-1.8-4-2.8-6.5-2.8s-4.7.9-6.5 2.8c-1.8 1.8-2.7 4.1-2.7 6.7 0 2.7.9 4.9 2.7 6.8 1.8 1.8 4 2.8 6.5 2.8s4.7-.9 6.5-2.8c1.8-1.9 2.7-4.2 2.7-6.8z"/><path id="XMLID_939_" class="st0" d="M95.6 399.3h.6c5 0 9.6-2.9 9.6-7.3v-17h-5.5c-.5 0-.9.1-1.2.3-.2.2-.4.5-.4.8 0 .3.1.6.4.8.2.2.6.3 1.2.3h3.3v14.6c0 3.8-4.9 5.1-7.4 5.1h-.6c-2.2 0-7.1-1.4-7.1-5.1v-16.9h-5.3c-.5 0-.9.1-1.2.3-.2.2-.4.5-.4.8 0 .3.1.6.4.8.2.2.6.3 1.2.3h3v14.6c-.1 6.7 7.3 7.6 9.4 7.6z"/><path id="XMLID_936_" class="st0" d="M77.1 377.8c-2.4-2.4-5.2-3.6-8.5-3.6-3.9 0-7.2 1.8-9.9 5.3v-15h-5.3c-.5 0-.9.1-1.2.3-.2.2-.4.5-.4.8 0 .3.1.6.4.8.2.2.6.3 1.2.3h3v21.6c0 1.1.9 3.6 2.3 5.6 2.6 3.6 5.9 5.3 9.9 5.3 3.3 0 6.1-1.2 8.5-3.7 2.4-2.4 3.6-5.4 3.6-9 0-3.3-1.2-6.3-3.6-8.7zM75.5 394c-2 2-4.3 3-6.9 3s-4.9-1-6.9-3-2.9-4.4-2.9-7.3 1-5.3 2.9-7.3c2-2 4.3-3 6.9-3s4.9 1 6.9 3 2.9 4.4 2.9 7.3-1 5.3-2.9 7.3z"/><path id="XMLID_934_" class="st0" d="M-10.6 369v-.8c0-.5.1-.9.3-1.2.2-.2.5-.4.8-.4.3 0 .6.1.8.4.2.2.3.6.3 1.2v5.8c0 .5-.1.9-.3 1.2-.2.2-.5.3-.8.3-.3 0-.6-.1-.8-.3-.2-.2-.3-.6-.3-1.1-.1-1.5-.9-2.9-2.3-4.1-1.5-1.2-3.4-1.8-5.8-1.8-2.5 0-4.5.6-6 1.9-1.5 1.3-2.2 2.8-2.2 4.5 0 .9.2 1.7.6 2.5.4.7 1 1.3 1.6 1.8.7.5 1.5.8 2.3 1.1s2.2.6 4 .9c3.1.5 5.2 1 6.4 1.5 1.6.7 2.7 1.7 3.5 2.9.8 1.2 1.2 2.7 1.2 4.4 0 2.6-1 4.8-3.1 6.6-2.1 1.8-4.9 2.7-8.4 2.7-3.9 0-7.1-1.2-9.4-3.7v1.3c0 .5-.1.9-.3 1.2-.2.2-.5.3-.8.3-.3 0-.6-.1-.8-.3-.2-.2-.3-.6-.3-1.2v-6.3c0-.6.1-1 .3-1.2.2-.2.5-.3.8-.3.3 0 .6.1.8.3.2.2.3.6.3 1.1.1 1.7 1 3.2 2.7 4.5 1.7 1.4 3.9 2 6.8 2s5.1-.7 6.7-2.1c1.6-1.4 2.5-3.1 2.5-5 0-1.2-.3-2.2-.9-3.2-.6-.9-1.6-1.7-2.8-2.2-.9-.4-2.7-.8-5.4-1.3-3.8-.6-6.5-1.6-8.1-2.9-1.7-1.3-2.5-3.1-2.5-5.5s.9-4.4 2.8-6.1c1.9-1.7 4.4-2.6 7.5-2.6 3.3.2 6 1.2 8.3 3.2z"/></g></g></svg>