<svg id="Layer_1" xmlns="http://www.w3.org/2000/svg" viewBox="101.1 366.2 263 54.6"><style>.st0{fill:#01ACFE;}</style><path class="st0" d="M136 366.2l-27 38.5h16.8c1.3 0 2.4-.1 3.4-.4 1-.2 1.8-.7 2.6-1.3.8-.6 1.4-1.5 2-2.6.6-1.1 1.1-2.5 1.7-4.3l1 .2-2 10.9h-33.4v-1.1l26.3-37.4h-13.1c-1.7 0-3 .1-4 .4-1 .2-1.7.7-2.3 1.3-.6.6-1 1.4-1.3 2.4-.3 1-.6 2.2-.8 3.7h-1.1l.8-10.2H136v-.1zM153.7 378.7c1.9 0 3.7.4 5.3 1.1 1.6.7 3.1 1.8 4.2 3 1.2 1.3 2.1 2.8 2.8 4.5.7 1.7 1 3.6 1 5.5 0 1.3-.2 2.5-.5 3.8-.3 1.2-.8 2.5-1.3 3.8-1.2 2.6-2.8 4.5-4.9 5.8s-4.4 1.9-7 1.9c-1.9 0-3.7-.4-5.3-1.2-1.6-.8-3-1.8-4.1-3.2-1.2-1.3-2-2.9-2.7-4.6-.7-1.7-1-3.6-1-5.5 0-2.6.6-5.1 1.9-7.6.6-1.2 1.4-2.3 2.2-3.3.9-.9 1.8-1.7 2.8-2.3s2-1.1 3.1-1.4c1.2-.2 2.3-.3 3.5-.3zm-.9 1.9c-.9 0-1.8.2-2.6.6-.8.4-1.6 1-2.2 1.8-.6.8-1.1 1.9-1.5 3.2-.4 1.3-.6 2.9-.6 4.8 0 2 .2 3.9.6 5.7.4 1.8 1 3.4 1.7 4.7.8 1.4 1.7 2.4 2.8 3.2 1.1.8 2.3 1.2 3.6 1.2.9 0 1.8-.2 2.7-.5.8-.4 1.5-1 2.1-1.8.6-.8 1.1-1.9 1.4-3.3.3-1.4.5-3 .5-5.1 0-2-.2-3.8-.6-5.6-.4-1.8-.9-3.3-1.7-4.6-.7-1.3-1.6-2.4-2.7-3.1-.9-.8-2.2-1.2-3.5-1.2zM184.7 378.7c1.9 0 3.7.4 5.3 1.1 1.6.7 3 1.8 4.2 3 1.2 1.3 2.1 2.8 2.8 4.5.7 1.7 1 3.6 1 5.5 0 1.3-.2 2.5-.5 3.8-.3 1.2-.8 2.5-1.3 3.8-1.2 2.6-2.8 4.5-4.9 5.8s-4.4 1.9-7 1.9c-1.9 0-3.7-.4-5.3-1.2-1.6-.8-3-1.8-4.1-3.2-1.1-1.3-2-2.9-2.7-4.6-.7-1.7-1-3.6-1-5.5 0-2.6.6-5.1 1.9-7.6.6-1.2 1.4-2.3 2.2-3.3.9-.9 1.8-1.7 2.8-2.3s2-1.1 3.2-1.4c1.1-.2 2.2-.3 3.4-.3zm-.9 1.9c-.9 0-1.8.2-2.6.6-.8.4-1.6 1-2.2 1.8-.6.8-1.1 1.9-1.5 3.2-.4 1.3-.6 2.9-.6 4.8 0 2 .2 3.9.6 5.7.4 1.8 1 3.4 1.7 4.7.8 1.4 1.7 2.4 2.8 3.2s2.3 1.2 3.6 1.2c1 0 1.8-.2 2.7-.5.8-.4 1.5-1 2.1-1.8.6-.8 1.1-1.9 1.4-3.3.3-1.4.5-3 .5-5.1 0-2-.2-3.8-.6-5.6-.4-1.8-.9-3.3-1.7-4.6-.7-1.3-1.6-2.4-2.7-3.1-.9-.8-2.1-1.2-3.5-1.2zM210.4 384.6l2.4-2.4c.6-.6 1-.9 1.2-1.1.9-.8 1.9-1.3 3-1.8 1.1-.4 2.1-.6 3.1-.6 1.8 0 3.3.5 4.5 1.5s2.1 2.5 2.5 4.4c1-1.2 2-2.2 2.9-3 .9-.8 1.7-1.4 2.4-1.8s1.5-.7 2.2-.9c.7-.2 1.5-.2 2.2-.2 1 0 2 .2 2.9.5s1.6.9 2.3 1.7c.7.8 1.2 1.9 1.6 3.2.4 1.3.6 3 .6 4.9v11.9c0 .9 0 1.7.1 2.4 0 .7.2 1.2.5 1.6.3.4.7.7 1.2.9.6.2 1.4.3 2.4.3v1.1h-13.7v-1.1h.6c.8 0 1.4-.1 1.9-.2s.9-.4 1.2-.7c.3-.4.5-.9.6-1.6.1-.7.2-1.6.2-2.7V389c0-1.3-.1-2.4-.3-3.3-.2-.9-.5-1.6-.9-2.1s-.9-.9-1.4-1.1c-.6-.2-1.2-.3-2-.3-.5 0-1.1.1-1.6.2s-1.1.3-1.6.6c-.6.3-1.2.7-1.8 1.2-.7.5-1.4 1.1-2.1 1.8v14.9c0 1 0 1.7.1 2.3 0 .6.1 1 .2 1.2.2.5.6.8 1.2 1.2.6.3 1.6.5 3 .5v1.1h-14v-1.1c1.1 0 1.9-.1 2.5-.2s1.1-.4 1.4-.8c.3-.4.5-.9.5-1.6.1-.7.1-1.5.1-2.5v-11.9c0-1.3-.1-2.4-.3-3.2-.2-.9-.6-1.6-1-2.1s-.9-.9-1.5-1.1c-.6-.2-1.2-.3-1.9-.3s-1.3.1-2 .4c-.7.2-1.4.6-2 .9-.6.4-1.2.8-1.8 1.3-.5.5-1 .9-1.3 1.3v14.9c0 .9 0 1.7.1 2.2.1.6.1 1 .3 1.3.1.3.3.6.5.7.2.2.4.3.7.5.5.3 1.5.4 3 .4v1.1h-13.7v-1.1c1 0 1.7-.1 2.3-.2.6-.2 1-.4 1.3-.8.3-.4.5-.9.6-1.6.1-.7.1-1.5.1-2.5v-10.6c0-1.8 0-3.2-.1-4.2s-.2-1.8-.3-2.3c-.2-.5-.4-.8-.7-1-.3-.1-.6-.2-1.1-.2-.6 0-1.3.2-2.1.5l-.4-1.1 8.3-3.4h1.3v5.7h-.4zM261.4 368.4v16.2h9c1.3 0 2.4-.1 3.2-.3.8-.2 1.5-.6 1.9-1.1.5-.5.8-1.1 1-1.8.2-.7.3-1.6.3-2.7h1.1V393h-1.1c-.2-1.1-.3-2.1-.5-2.9-.2-.8-.5-1.4-.9-1.9s-1-.8-1.8-1c-.8-.2-1.8-.3-3.2-.3h-9v13.5c0 1.8.1 2.9.2 3.3.1.2.2.4.3.5.1.2.3.3.6.4.2.1.5.2.9.3.4.1.8.1 1.4.1h7c1.2 0 2.2 0 3-.1.8-.1 1.5-.2 2.1-.4.6-.2 1.1-.4 1.6-.7.5-.3 1-.7 1.5-1.2 1.2-1.2 2.5-3.1 3.8-5.6h1.2l-3.6 10.3h-31.6v-1.1h1.4c.4 0 .8 0 1.2-.1.4-.1.8-.2 1.2-.4.4-.2.7-.4 1-.7s.5-.6.7-1c.2-.6.4-2 .4-4v-26.6c0-1.3-.1-2.3-.2-3.2-.1-.8-.3-1.4-.6-1.7-.7-.8-1.9-1.2-3.7-1.2h-1.4v-1.1h31.6v9h-.7c-.3-1.5-.6-2.7-.9-3.6s-.8-1.6-1.4-2.1c-.6-.5-1.3-.8-2.2-.9s-2-.2-3.4-.2h-11.4zM286.7 379.5h12.9v1.1h-.6c-.9 0-1.6.2-2.1.6s-.7.9-.7 1.5c0 .8.3 1.9 1 3.3l6.7 14 6.2-15.3c.3-.9.5-1.7.5-2.5 0-.2 0-.4-.1-.6-.1-.2-.2-.3-.4-.5-.2-.1-.5-.2-.8-.3-.4-.1-.9-.1-1.5-.1v-1.1h9v1.1c-.5 0-.9.1-1.3.2-.3.1-.7.3-1 .6-.3.3-.6.7-.9 1.2s-.6 1.3-1 2.2l-11.3 27.7c-.5 1.3-1.2 2.5-1.9 3.5s-1.5 1.9-2.4 2.6c-.8.7-1.7 1.2-2.6 1.6s-1.7.5-2.5.5c-.6 0-1.1-.1-1.6-.3-.5-.2-.9-.4-1.3-.7-.4-.3-.6-.7-.8-1.1-.2-.4-.3-.8-.3-1.3 0-.9.3-1.5.8-2.1.6-.5 1.3-.8 2.3-.8.2 0 .5.1 1 .2.4.1.9.3 1.3.4.5.1.9.3 1.2.4.4.1.6.2.7.2.3 0 .6-.1 1-.2.3-.1.7-.4 1-.7s.7-.8 1.1-1.4c.4-.6.7-1.3 1.1-2.2l2-4.8-10-20.9c-.1-.2-.3-.5-.5-.9s-.5-.8-.7-1.1c-.3-.4-.5-.7-.8-1-.3-.3-.5-.6-.7-.7-.4-.3-1.2-.6-2.2-.8v-1.5h.2z"/><g id="形状_1_2_"><path class="st0" d="M342.7 381.2c-13.4 0-21.4 13.4-21.4 13.4s6.7 16 21.4 16.1 21.4-16.1 21.4-16.1-8-13.4-21.4-13.4zm0 25.4c-9.6-.1-16.1-11.9-16.1-11.9s6.4-9.5 16.1-9.5 16.1 9.5 16.1 9.5-6.5 12-16.1 11.9zm0-17.4c-3.7 0-6.7 3-6.7 6.7s3 6.7 6.7 6.7 6.7-3 6.7-6.7-3-6.7-6.7-6.7z"/></g></svg>